<?xml version="1.0" standalone="no"?>
<!DOCTYPE svg PUBLIC "-//W3C//DTD SVG 20010904//EN"
 "http://www.w3.org/TR/2001/REC-SVG-20010904/DTD/svg10.dtd">
<svg version="1.0" xmlns="http://www.w3.org/2000/svg"
 width="13.000000pt" height="13.000000pt" viewBox="0 0 13.000000 13.000000"
 preserveAspectRatio="xMidYMid meet">
<metadata>
Created by potrace 1.16, written by Peter Selinger 2001-2019
</metadata>
<g transform="translate(0.000000,13.000000) scale(0.005804,-0.005804)"
fill="#000000" stroke="none">
<path d="M28 2160 c-24 -15 -33 -66 -15 -93 10 -15 66 -43 173 -86 l159 -62
104 -567 c57 -312 107 -577 112 -589 6 -16 22 -27 52 -35 l44 -11 -39 -104
c-55 -150 -50 -183 24 -183 21 0 38 -3 38 -7 0 -4 -10 -26 -21 -50 -32 -66
-24 -157 18 -215 100 -138 313 -110 374 49 18 47 13 130 -10 169 -12 19 -21
39 -21 45 0 5 93 9 230 9 l229 0 -25 -48 c-22 -40 -25 -57 -22 -113 4 -77 30
-123 93 -167 35 -24 50 -27 117 -27 69 0 81 3 119 30 85 60 117 182 70 273
-12 23 -21 43 -21 46 0 3 21 6 47 8 39 2 50 8 62 29 13 24 13 29 -2 53 l-17
26 -591 0 c-469 0 -590 3 -587 12 3 7 17 48 33 90 l28 78 539 0 c618 0 596 -3
621 77 114 347 297 929 297 939 0 7 -10 25 -22 39 l-23 26 -713 31 c-533 23
-719 28 -737 20 -42 -19 -46 -100 -7 -121 10 -5 313 -22 673 -37 360 -15 656
-28 657 -30 2 -1 -41 -143 -97 -316 -55 -172 -112 -350 -126 -395 l-26 -83
-569 0 -569 0 -6 33 c-3 17 -50 272 -104 565 -79 428 -102 537 -117 551 -23
22 -354 151 -386 151 -13 0 -31 -5 -40 -10z m889 -1811 c49 -47 33 -128 -33
-155 -93 -39 -176 86 -101 153 12 11 29 23 37 26 25 10 73 -2 97 -24z m793 -4
c18 -18 25 -36 25 -64 0 -45 -17 -69 -62 -88 -84 -35 -160 64 -109 142 33 51
100 55 146 10z"/>
</g>
</svg>
